<svg width="93" height="32" viewBox="0 0 93 32" fill="none" xmlns="http://www.w3.org/2000/svg">
<path d="M20.54 11.8822H18.4624V3.62289C18.4646 2.80906 18.2011 2.0183 17.7146 1.37872C17.2282 0.739137 16.5472 0.288212 15.782 0.0989999C15.0169 -0.090212 14.2124 -0.00662591 13.4989 0.336216C12.7854 0.679057 12.2047 1.26107 11.8509 1.98795C11.4971 2.71484 11.3909 3.54401 11.5495 4.34113C11.7082 5.13824 12.1223 5.85661 12.7249 6.37983C13.3274 6.90305 14.0831 7.20047 14.8695 7.22392C15.6559 7.24735 16.4269 6.99544 17.0576 6.50898V11.8822H9.04239C8.11922 11.8822 7.23386 12.2616 6.58109 12.9369C5.92831 13.6121 5.56158 14.528 5.56158 15.483C5.56158 15.5102 5.56158 15.5356 5.56158 15.5611V23.8187H3.48393C2.7965 23.8184 2.12437 24.0286 1.5522 24.4228C0.980031 24.8169 0.533431 25.3774 0.268665 26.0337C0.00389909 26.69 -0.0671888 27.4126 0.064358 28.1106C0.195905 28.8086 0.524201 29.4507 1.00789 29.956C1.49157 30.4613 2.109 30.8073 2.7824 30.9502C3.4558 31.0932 4.15503 31.0268 4.792 30.7593C5.42897 30.4919 5.97519 30.0355 6.36183 29.4475C6.74848 28.8595 6.95826 28.1663 6.96474 27.4552V25.272H12.1917C11.7251 25.9221 11.4843 26.7161 11.5081 27.5255C11.5319 28.3349 11.8189 29.1122 12.3228 29.7319C12.8267 30.3516 13.5179 30.7772 14.2846 30.9401C15.0514 31.1029 15.8488 30.9934 16.5479 30.6292C17.2471 30.2651 17.807 29.6676 18.1371 28.9334C18.4672 28.1992 18.5482 27.3712 18.3671 26.5835C18.1859 25.7957 17.7531 25.0943 17.1387 24.5925C16.5244 24.0908 15.7643 23.8182 14.9816 23.8187H6.96638V18.3691C7.63619 18.8858 8.46346 19.1358 9.29682 19.0733C10.1302 19.0107 10.9139 18.6399 11.5047 18.0286C12.0954 17.4173 12.4536 16.6064 12.5138 15.7443C12.5739 14.8822 12.332 14.0265 11.8323 13.3337H17.0576V15.517C17.0641 16.2277 17.2737 16.9205 17.6601 17.5081C18.0465 18.0958 18.5924 18.5521 19.2289 18.8194C19.8655 19.0867 20.5643 19.1532 21.2374 19.0105C21.9104 18.8677 22.5275 18.5221 23.0111 18.0172C23.4946 17.5123 23.8229 16.8707 23.9545 16.1731C24.0862 15.4756 24.0154 14.7533 23.751 14.0973C23.4866 13.4413 23.0405 12.8809 22.4688 12.4868C21.8971 12.0926 21.2254 11.8822 20.5384 11.8822H20.54ZM14.9816 5.77048C14.5706 5.77081 14.1687 5.64505 13.8269 5.40908C13.485 5.17312 13.2184 4.83756 13.0609 4.44486C12.9034 4.05216 12.862 3.61996 12.942 3.20293C13.022 2.78589 13.2197 2.40277 13.5102 2.10201C13.8007 1.80126 14.1709 1.59639 14.574 1.51332C14.9771 1.43026 15.3949 1.47272 15.7746 1.63534C16.1544 1.79797 16.479 2.07345 16.7073 2.42693C16.9357 2.78042 17.0576 3.19603 17.0576 3.62119C17.0572 4.19094 16.8384 4.73728 16.4493 5.14047C16.0601 5.54367 15.5323 5.77083 14.9816 5.77217V5.77048ZM17.0576 27.4195C17.0576 27.8447 16.9357 28.2603 16.7073 28.6138C16.479 28.9673 16.1544 29.2428 15.7746 29.4054C15.3949 29.568 14.9771 29.6105 14.574 29.5274C14.1709 29.4443 13.8007 29.2395 13.5102 28.9387C13.2197 28.638 13.022 28.2548 12.942 27.8378C12.862 27.4208 12.9034 26.9886 13.0609 26.5959C13.2184 26.2032 13.485 25.8676 13.8269 25.6317C14.1687 25.3957 14.5706 25.2699 14.9816 25.2703C15.2544 25.2705 15.5245 25.3263 15.7765 25.4345C16.0285 25.5427 16.2574 25.7012 16.4502 25.901C16.643 26.1007 16.7959 26.3378 16.9001 26.5986C17.0043 26.8595 17.0578 27.139 17.0576 27.4212V27.4195ZM3.48393 29.562C3.07294 29.562 2.67118 29.4359 2.32948 29.1997C1.98778 28.9635 1.72148 28.6277 1.56428 28.2349C1.40707 27.842 1.36602 27.4098 1.44632 26.9928C1.52662 26.5759 1.72466 26.1929 2.01539 25.8924C2.30612 25.5919 2.67648 25.3873 3.07961 25.3046C3.48274 25.2218 3.90054 25.2646 4.28015 25.4276C4.65976 25.5905 4.98414 25.8662 5.21223 26.2199C5.44033 26.5736 5.56191 26.9893 5.56158 27.4145C5.56115 27.9842 5.34206 28.5304 4.95247 28.9331C4.56289 29.3358 4.03468 29.562 3.48393 29.562ZM9.04239 17.6255C8.63119 17.6255 8.22923 17.4993 7.88743 17.2628C7.54562 17.0264 7.27932 16.6903 7.12227 16.2971C6.96521 15.904 6.92445 15.4715 7.00515 15.0544C7.08585 14.6373 7.28438 14.2544 7.5756 13.954C7.86682 13.6537 8.23764 13.4496 8.6411 13.3674C9.04455 13.2853 9.4625 13.3288 9.84203 13.4925C10.2216 13.6562 10.5456 13.9328 10.7731 14.2871C11.0006 14.6414 11.1213 15.0576 11.12 15.483C11.1196 16.0529 10.9006 16.5993 10.511 17.0023C10.1215 17.4053 9.59328 17.6319 9.04239 17.6323V17.6255ZM20.54 17.6255C20.129 17.6259 19.7272 17.5001 19.3853 17.2641C19.0434 17.0282 18.7769 16.6926 18.6194 16.2999C18.4619 15.9072 18.4205 15.475 18.5005 15.058C18.5804 14.6409 18.7782 14.2578 19.0687 13.9571C19.3592 13.6563 19.7294 13.4514 20.1325 13.3684C20.5355 13.2853 20.9534 13.3278 21.3331 13.4904C21.7128 13.653 22.0374 13.9285 22.2658 14.282C22.4942 14.6355 22.616 15.0511 22.616 15.4762C22.6169 16.0469 22.3987 16.5945 22.0095 16.9988C21.6202 17.4031 21.0916 17.631 20.54 17.6323V17.6255Z" fill="#FF2424"/>
<path d="M49.3267 8H51.3854L47.7126 24.6434H44.7649L41.6769 9.80699H39.7118L36.6237 24.6434H33.6761L30.0032 8H32.0619L35.1499 22.7888L38.1443 8H43.2443L46.2387 22.7888L49.3267 8Z" fill="#FF2424"/>
<path d="M59.2272 12.7315H61.0988V24.6434H59.2272V23.5021C58.6892 24.4056 57.5195 25 56.186 25C54.0103 25 52.4429 23.3119 52.4429 20.8392V16.5357C52.4429 14.0629 54.0103 12.3748 56.186 12.3748C57.5195 12.3748 58.6892 12.9692 59.2272 13.8727V12.7315ZM56.7708 23.2881C58.1979 23.2881 59.2272 22.4322 59.2272 20.6965V16.6783C59.2272 14.9427 58.1979 14.0867 56.7708 14.0867C55.3438 14.0867 54.3145 14.9427 54.3145 16.6783V20.6965C54.3145 22.4322 55.3438 23.2881 56.7708 23.2881Z" fill="#FF2424"/>
<path d="M64.4196 24.6434V8H66.2912V24.6434H64.4196Z" fill="#FF2424"/>
<path d="M70.0626 24.6434V8H71.9341V24.6434H70.0626Z" fill="#FF2424"/>
<path d="M83.6705 19.2937H76.8862V20.6014C76.8862 22.2182 77.8687 23.2881 79.3425 23.2881C80.8632 23.2881 81.7989 22.4559 81.7989 20.8392H83.6705C83.6705 23.6448 82.0329 25 79.3425 25C76.7458 25 75.0146 23.3357 75.0146 20.8154V16.5594C75.0146 14.0392 76.7458 12.3748 79.3425 12.3748C81.9393 12.3748 83.6705 14.0392 83.6705 16.5594V19.2937ZM79.3425 14.0867C77.8687 14.0867 76.8862 15.1566 76.8862 16.7734V17.8196H81.7989V16.7734C81.7989 15.1566 80.8164 14.0867 79.3425 14.0867Z" fill="#FF2424"/>
<path d="M90.9972 24.8336C89.0555 24.8336 87.4179 24.4056 87.4179 21.2196V14.4434H85.8739V12.7315H87.4413V9.75944H89.2895V12.7315H91.8862V14.4434H89.2895V21.172C89.2895 22.765 89.9445 23.1217 91.0206 23.1217H92.0032V24.8336H90.9972Z" fill="#FF2424"/>
</svg>
